<svg xmlns="http://www.w3.org/2000/svg" version="1.1" width="600px" height="600px" viewBox="0 0 200 200" style="overflow:hidden!important;"><g id="svga-group-wrapper"><g id="svga-group-backs-single"><path id="SvgjsPath7237" d="M0 0h200v200H0V0z" fill="#ecf0f1" stroke-width="none" opacity="1" stroke="none"></path></g><g id="svga-group-humanwrap-move" transform="matrix(1,0,0,1,0,0)"><g id="svga-group-humanwrap" transform="matrix(0.8499995000000001,0,0,0.8499995000000001,14.947549767779336,18.73498400048922)"><g id="svga-group-hair-back-move" transform="matrix(1,0,0,1,0,0)"><g id="svga-group-hair-back"><path id="SvgjsPath12306" d="M61.6 38.2S52 52.5 51.1 62.3s1.6 31 1.6 38-.7 25.9-11.6 35.1c0 0 8.2-4.3 12.3-11.6 0 0-2.5 10.5-9.8 16.2 0 0 9.6-4.3 15.7-15.2 0 0-4.8 13.2-12.8 16.8 0 0 9.8-2.7 16.4-14.8 0 0-2.7 16.6-7.3 22.3 0 0 8.6-11.6 10.9-19.4 0 0-3.6 13.7-3.2 20.5 0 0 1.6-10.9 9.8-18.4 0 0 1.1 12.8.2 18.4 0 0 4.6-7.7 5.2-14.6 0 0 3.6 10.9 6.2 15.5 0 0-1.6-9.6-.5-13.9l37.3-2.1s3.2 14.3 6.2 18.7c0 0-2.5-14.8-.9-20.3 0 0 .9 12.1 14.8 19.1 0 0-12.1-12.1-11.1-22.5 0 0 2.7 10.2 10.5 15.9 0 0-6.4-11.4-4.8-20 0 0 5.9 15.7 11.1 19.8 0 0-6.1-10.2-5.7-19.1 0 0 4.1 10 9.1 13 0 0-5.7-7.1-6.4-17.5 0 0 3.6 10 12.3 15 0 0-8.9-7.3-10.7-21.8-1.8-14.6 1.1-37.8 1.4-44.8s0-12.3-2.7-18.4-2.1-12.1-18.4-15.5c-16.4-3.5-64.6 1.5-64.6 1.5z" fill="#2a232b" stroke-width="none" opacity="1" stroke="none"></path><path id="SvgjsPath12307" d="M50.7 120.8c.7-2.1 1.3-4.2 1.7-6.3 1.8-8.6 1.3-17.4.7-25.9-.7-8.6-1.6-17.1-.9-25.6.4-4.2 1.1-8.4 2.4-12.5.7-2 1.5-4 2.4-5.9 1-1.9 2.1-3.7 3.4-5.4-1.5 1.6-2.8 3.3-3.9 5.2-1.1 1.9-2.1 3.8-2.9 5.8-.8 2-1.4 4.1-1.9 6.2-.5 2.1-.8 4.3-1.1 6.4-1 8.7-.2 17.3.5 25.9.3 4.3.6 8.5.7 12.8 0 2.1 0 4.2-.2 6.4-.2 2.1-.4 4.2-.8 6.3-.7 4.2-1.9 8.3-3.7 12.1-.9 1.9-2 3.8-3.2 5.5-1.3 1.7-2.7 3.3-4.3 4.8 1.7-1.3 3.3-2.8 4.7-4.5 1.4-1.7 2.6-3.5 3.7-5.4 1.1-1.9 1.9-3.9 2.7-5.9zm11.6-6.7c-1.1 2.7-2.1 5.5-3.1 8.2-1 2.7-2.1 5.3-3.5 7.8-1.3 2.5-2.9 4.9-4.7 7-1.9 2.1-4 4-6.5 5.6 2.8-.8 5.5-2.4 7.6-4.5 2.2-2.1 4-4.5 5.4-7.2 1.4-2.6 2.4-5.4 3.2-8.3.8-2.8 1.3-5.6 1.6-8.6zm7.3-1.7c0-4.2-.4-8.5-1.4-12.6.2 4.2.2 8.4-.1 12.6-.3 4.2-.9 8.3-1.8 12.3-.8 4.1-2 8.1-3.4 12-1.4 3.9-3.1 7.7-5 11.5 2.6-3.3 4.7-7 6.5-10.9 1.7-3.9 3-8 3.9-12.1.9-4.3 1.3-8.6 1.3-12.8zm8.1-5.1c.2 3.9.2 7.7-.1 11.5-.3 3.8-.9 7.6-1.9 11.2-.9 3.7-2.2 7.3-3.7 10.8-1.5 3.5-3.3 6.9-5.3 10.2 2.7-2.8 4.9-6.1 6.7-9.5 1.8-3.5 3.2-7.2 4.2-11 .9-3.8 1.5-7.7 1.5-11.6 0-3.9-.4-7.9-1.4-11.6zm8.3 18c-.2 3.3-.7 6.7-1.4 9.9-.7 3.3-1.6 6.5-2.7 9.6-1.1 3.2-2.5 6.2-4 9.3 2.2-2.6 4-5.6 5.5-8.7 1.5-3.1 2.5-6.4 3.2-9.8.7-3.4 1.1-6.9 1-10.3-.1-3.4-.5-6.9-1.5-10.2.1 3.4.1 6.8-.1 10.2zm67.8 8c-1.3-1.9-2.4-4-3.4-6.1-1.9-4.2-3-8.8-3.7-13.4a80.289 80.289 0 0 1-.6-13.9c.2-4.7.6-9.3 1-14 .4-4.7.8-9.4.9-14.1 0-2.4 0-4.7-.1-7.1-.2-2.4-.4-4.7-.9-7.1-.4-2.3-1-4.7-1.7-6.9-.8-2.2-1.6-4.5-2.7-6.6-1.1-2.1-2.4-4.1-3.9-5.9-1.5-1.8-3.2-3.5-5.1-4.9 1.7 1.6 3.3 3.3 4.7 5.2 1.3 1.9 2.5 3.9 3.4 6 1.9 4.2 3.1 8.8 3.8 13.3a80.289 80.289 0 0 1 .6 13.9c-.2 4.7-.6 9.3-1 14-.4 4.7-.8 9.4-.9 14.1 0 2.4 0 4.7.1 7.1.1 2.4.4 4.7.8 7.1.4 2.3.9 4.7 1.7 6.9.7 2.3 1.6 4.5 2.7 6.6 1.1 2.1 2.4 4.1 3.8 6 1.5 1.9 3.2 3.5 5 5-1.6-1.6-3.2-3.3-4.5-5.2zm-17-10.8c-.9-4.6-1.4-9.3-1.6-14.1-.2-4.7-.1-9.5 0-14.2.2-9.5.7-19.1-.3-28.7-.3-2.4-.6-4.8-1.1-7.1-.5-2.3-1.1-4.7-2-7-.9-2.2-2.1-4.4-3.8-6.2-.8-.9-1.8-1.7-2.8-2.3-1.1-.6-2.2-1-3.4-1.1 2.3.5 4.4 1.9 5.8 3.7 1.5 1.8 2.5 4 3.2 6.2.8 2.2 1.2 4.5 1.6 6.9.4 2.3.7 4.7.9 7 .7 9.4.2 19-.1 28.5-.2 9.5-.2 19.3 2.1 28.7 1.1 4.7 2.8 9.3 5.1 13.5 2.3 4.2 5.3 8.1 8.9 11.2-3.3-3.4-6-7.4-8-11.7-2.2-4.1-3.6-8.7-4.5-13.3zm-7.4 6.5c-2.8-9.2-4.1-18.8-4.7-28.4-.8-9.6-1-19.3-2.1-29-.3-2.4-.6-4.8-1-7.2-.4-2.4-.8-4.8-1.6-7.2-.8-2.3-2-4.6-3.7-6.3-1.7-1.8-4-3-6.5-3.1 2.4.3 4.5 1.7 6.1 3.5 1.6 1.8 2.6 4 3.2 6.3.6 2.3.9 4.7 1.2 7.1.3 2.4.5 4.8.7 7.2.8 9.6.9 19.3 1.7 29 .7 9.7 2.1 19.4 5.2 28.7 1.6 4.6 3.5 9.1 6 13.3 2.6 4.1 5.6 8 9.2 11.3-3.3-3.6-6.1-7.5-8.3-11.8-2.2-4.4-4-8.9-5.4-13.4zm-15.6-11.7c-3.5-13.1-5.2-26.6-5.3-40.2-1.5 13.6-.2 27.5 3.4 40.7 1.8 6.6 4.1 13.1 7 19.3 2.9 6.2 6.4 12.1 10.4 17.6-3.4-5.9-6.3-12-9-18.3-2.6-6.2-4.8-12.6-6.5-19.1z" fill="#1b141c" stroke-width="none" opacity="1" stroke="none"></path></g></g><g id="svga-group-humanbody-back"><path id="SvgjsPath7190" d="M180.8 184.9c-2.3-3.4-38.9-17.8-38.9-17.8l-13.4-5.2-5.6-68.8H76.8L71.3 162l-13.4 5.2S21.4 181.6 19 185c-2.3 3.4-3.3 14.9-3.3 14.9V219h168.5v-19.2c-.1.1-1-11.5-3.4-14.9z" fill="#f0c7b1" stroke-width="none" opacity="1" stroke="none"></path></g><g id="svga-group-chinshadow-single"><path id="SvgjsPath7186" d="M85.7 157.38c2.95 2.5 14.4 2.34 17.66.34 3.2-1.96 8.57-7.52 22.92-23.62l-3.34-41H76.82l-4.05 50.95c6.27 6.89 11.03 11.73 12.93 13.33z" fill="#d19271" stroke-width="none" opacity="1" stroke="none"></path></g><g id="svga-group-humanbody-front"><path id="SvgjsPath7191" d="M184.5 219c-.1-6.4-.1-12.8-.1-19.2l-.3-.1s.1-.1.2 0c.1 0 .1.1.1.1v-.4l-.1-.5-.1-.9-.2-1.9c-.2-1.3-.4-2.5-.6-3.8-.2-1.3-.5-2.5-.9-3.8-.4-1.2-.8-2.5-1.5-3.6-.8-.9-1.9-1.5-2.9-2.1-1-.6-2.1-1.1-3.2-1.7-2.1-1.1-4.3-2.1-6.5-3.1-4.4-2-8.7-3.9-13.1-5.7-4.4-1.9-8.8-3.7-13.2-5.5l-13-5.2-1.2-16.9c-.4-5.7-.9-11.5-1.3-17.2l-1.3-17.2-1.5-17.3-.1-.8h-.8c-7.7 0-15.4.1-23.1.1l-23.1.2h-.5v.5L75 110.2l-1.3 17.2c-.8 11.4-1.8 22.8-2.8 34.2-5.6 2.1-11.2 4.2-16.7 6.4-5.6 2.2-11.2 4.5-16.8 6.9-2.8 1.2-5.6 2.4-8.3 3.6-2.8 1.3-5.5 2.5-8.2 4.1-.7.4-1.3.8-2 1.4-.2.1-.4.4-.5.6l-.3.6c-.2.4-.4.7-.5 1.1-.6 1.5-1 3-1.3 4.5-.6 3-1.1 6-1.4 9.1l-.1 19.1v.9h.9l42.1.1H100c14 0 28.1-.1 42.1-.2l42.1-.5h.3v-.3zm-84.5-1-42.1-.1-41.2.1-.1-18.1c.3-3 .6-5.9 1.2-8.9.3-1.4.6-2.9 1.1-4.2.1-.3.3-.7.4-.9l.2-.4.3-.3c.5-.4 1.1-.8 1.8-1.2 2.5-1.5 5.3-2.8 8-4.1 2.7-1.3 5.5-2.5 8.2-3.7 5.5-2.4 11.1-4.8 16.7-7.1s11.2-4.5 16.9-6.7l.2-.1v-.2c.9-11.5 1.7-23 2.7-34.4l1.4-17.2 1.5-16.7 22.6.2c7.4.1 14.8.1 22.3.1l1.3 16.4 1.5 17.2c.5 5.7 1 11.5 1.5 17.2l1.6 17.2v.3l.3.1 13.4 5c4.4 1.7 8.9 3.4 13.3 5.2 4.4 1.8 8.8 3.7 13.2 5.6 2.2 1 4.3 2 6.5 3 1.1.5 2.1 1.1 3.2 1.6 1 .6 2.1 1.2 2.9 2 .7 1.1 1.1 2.3 1.4 3.5.3 1.2.6 2.5.8 3.7.2 1.3.4 2.5.6 3.8l.2 1.9.1.9.1.5v.4c0 6.3 0 12.6-.1 18.9l-41.8-.5c-14 .1-28.1 0-42.1 0z" fill="#c27b55" stroke-width="none" opacity="1" stroke="none"></path><path id="SvgjsPath7192" d="M125.1 142.4s-1.8 23-9.1 32.9c0 0 7.9-25 9.1-32.9zm-34.5 16s5 7.9 11.5 10.1c0 0-9.5 2.2-11.5-10.1zM73.4 140c6.7 25.6 6.7 25.6 8.5 30.7 0 0 .4-12.6-8.5-30.7z" fill="#d19271" stroke-width="none" opacity="1" stroke="none"></path></g><g id="svga-group-clothes-single"><path id="SvgjsPath12830" d="M56.9 166.6s-31.1 11.5-38.3 16.7c0 0-2.3 2.3-3.3 9.3-1 7-1.4 27.3-1.4 27.3h171.5s-.2-16.2-1.3-25.3c-1.2-9.1-1.9-9.3-3.1-10.5-1.2-1.2-27.3-14-38.6-17.5 0 0-1.6 22-40.1 23.6s-45.2-17.5-45.4-23.6z" fill="#386e77" stroke-width="none" opacity="1"></path><path id="SvgjsPath12831" d="M185.8 220c-.1-6.6-.3-13.2-.7-19.8-.2-3.3-.6-6.6-1.1-9.8-.3-1.6-.5-3.3-1.3-4.9-.2-.4-.5-.8-.8-1.1-.3-.3-.6-.6-1-.9-.8-.5-1.5-.9-2.2-1.2-5.8-3.1-11.8-5.9-17.8-8.7-3-1.4-6-2.7-9.1-3.9-3.1-1.3-6.1-2.5-9.3-3.5l-.5-.2-.1.6c-.3 2.1-1 4.2-2.1 6.1l-.4.7-.4.7-.9 1.4-1 1.3c-.4.4-.7.9-1.1 1.2-1.5 1.6-3.2 2.9-5 4.1-.9.6-1.8 1.2-2.8 1.7l-3 1.4c-4.1 1.6-8.3 2.9-12.7 3.6l-3.3.5-3.3.3-3.3.3c-1.1.1-2.2 0-3.3.1H96c-1.1 0-2.2-.1-3.3-.1l-3.3-.2-3.3-.4c-2.2-.2-4.3-.8-6.5-1.2-1.1-.2-2.1-.6-3.2-1l-1.6-.5-1.5-.7c-4.1-1.7-7.9-4.1-10.8-7.4l-1.1-1.2c-.3-.4-.6-.9-1-1.3-.7-.9-1.1-1.9-1.7-2.8-1-2-1.6-4.1-1.8-6.4-3.4 1.2-6.6 2.4-9.9 3.6-3.3 1.2-6.5 2.5-9.8 3.8-3.2 1.3-6.5 2.7-9.6 4.1-3.2 1.5-6.4 2.9-9.3 4.9-1.1 1.3-1.7 2.8-2.2 4.2-.5 1.5-.9 3-1.1 4.6-.5 3.1-.6 6.2-.8 9.3-.4 6.2-.6 12.4-.7 18.7v.4h.4c14.3.1 28.6-.1 42.9-.1l42.9-.1h21.4l21.4.1 42.9.2h.4v-.5zm-64.7-.2H99.7l-42.9-.1c-6.8 0-13.6 0-20.5-.1-.1-3.4-.5-6.7-1-10-.6-3.4-1.3-6.8-2.5-10-.6-1.6-1.5-3.2-2.5-4.6-1-1.4-2-2.8-3.2-4.1-2.3-2.6-4.9-4.9-7.6-6.9 2.5 2.3 4.9 4.8 7.1 7.4 2.1 2.6 4.1 5.4 5.3 8.6 1.2 3.1 2 6.5 2.7 9.8.4 1.7.7 3.4 1 5 .3 1.6.6 3.2.8 4.9-7.3 0-14.6-.1-22 0 .1-6.1.3-12.1.6-18.2.2-3.1.3-6.2.8-9.3.2-1.5.6-3 1.1-4.5.5-1.4 1.1-2.9 2-4 2.8-1.9 6-3.4 9.1-4.9 3.2-1.5 6.4-2.8 9.6-4.2 3.2-1.4 6.4-2.7 9.7-4l9.7-3.8c.1 2.1.8 4.4 1.7 6.4.5 1 1 2 1.7 2.9.3.5.6.9 1 1.4l1.1 1.3c3 3.4 6.8 5.9 10.9 7.6l1.5.7 1.6.5c1.1.3 2.1.8 3.2 1 2.2.5 4.3 1.1 6.6 1.3l3.3.5 3.3.2c1.1.1 2.2.2 3.3.2h5.3c-.2.7-.2 1.3-.1 1.9.1.7.2 1.3.5 2-1.1 0-2.1.1-3.2 0-4.8 0-9.6-.2-14.3-.9-.6-.1-1.2-.1-1.8-.2l-1.8-.4-3.5-.7c-1.2-.3-2.3-.7-3.4-1l-1.6-.5c.5-.5.9-1.2 1.2-1.8.3-.7.6-1.5.7-2.3-.6.6-1 1.3-1.4 2-.3.7-.6 1.3-.7 2.1-.6-.2-1.1-.4-1.6-.6-1.5-.6-2.9-1.2-4.3-1.9.3-.3.6-.5.8-.8.3-.3.5-.6.8-.9.5-.7.9-1.4 1.2-2.2-.7.5-1.3 1.1-1.8 1.7-.2.3-.5.7-.7 1.1-.2.3-.3.7-.4 1.1-2.2-1.1-4.2-2.5-6-4.1.8-.4 1.4-.9 2-1.5.6-.6 1.2-1.3 1.6-2.1-.8.4-1.5 1-2.1 1.6-.6.6-1.1 1.2-1.5 2-.5-.5-1.1-.9-1.6-1.4-.5-.4-.8-.9-1.2-1.3-.4-.4-.8-.9-1.2-1.4-.7-1-1.4-1.9-2-3-1.2-2.1-2.1-4.3-2.4-6.7.2 2.4 1.1 4.7 2.2 6.9.5 1.1 1.2 2.1 1.9 3.1.3.5.8.9 1.1 1.4.4.4.8 1 1.2 1.4 3.4 3.5 7.6 6.1 12.1 7.9.6.2 1.1.5 1.7.7l1.7.6c1.2.4 2.3.8 3.5 1.1l3.6.8 1.8.4c.6.1 1.2.2 1.8.2 4.8.7 9.6.9 14.5 1 9.6 0 19.4-1.3 28.4-5 4.5-1.9 8.7-4.3 12.3-7.6 1.8-1.7 3.4-3.4 4.7-5.5 1.4-2 2.5-4.1 3.1-6.5-1.6 4.6-4.7 8.4-8.2 11.6-3.6 3.2-7.8 5.5-12.3 7.3-6.6 2.6-13.6 3.9-20.7 4.4.1-.6.1-1.1 0-1.6-.1-.6-.3-1.2-.6-1.8-.2.7-.2 1.3-.1 1.9.1.5.2 1.1.5 1.6-1.3.1-2.7.1-4 .2.2-.7.2-1.4.2-2.1-.1-.6-.2-1.2-.5-1.9h1.2l3.3-.2c1.1-.1 2.2-.1 3.3-.3l3.3-.5c4.4-.6 8.8-1.9 12.9-3.5 4.1-1.7 8-4.2 11.2-7.4.4-.4.8-.8 1.1-1.3l1.1-1.3.9-1.4.5-.7.4-.8c1-1.8 1.7-3.7 2.1-5.8 2.9.9 5.8 2.1 8.6 3.3l9 3.9c6 2.7 11.9 5.5 17.7 8.6.7.4 1.5.8 2.1 1.2.3.1.6.5.9.7.3.3.4.6.6.9.6 1.4.9 3 1.2 4.6.5 3.2.9 6.5 1.2 9.8.5 6.4.7 12.9.8 19.3l-22.5.1c.3-1.7.5-3.3.8-4.9.3-1.7.6-3.4 1-5 .7-3.3 1.5-6.7 2.7-9.8 1.1-3.1 3.2-5.9 5.3-8.6 2.2-2.6 4.6-5.1 7.1-7.4-2.8 2-5.3 4.4-7.6 6.9-1.2 1.3-2.2 2.6-3.2 4.1-1 1.4-1.8 3-2.4 4.6-1.2 3.2-2 6.6-2.5 10-.5 3.4-.9 6.7-1 10.1l-19.9.1-21.7-.6zm16.2-41.2c.3.7.7 1.2 1.2 1.7s1 .9 1.7 1.2c-.3-.7-.7-1.2-1.2-1.7s-1-1-1.7-1.2z" fill="#184f58" stroke-width="none" opacity="1"></path></g><g id="svga-group-head" transform="matrix(1,0,0,1,0,0)"><g id="svga-group-ears-left-move" transform="matrix(1,0,0,1,0,0)"><g id="svga-group-ears-left"><path id="SvgjsPath7813" d="M68.41 84.17s-2.58-5.02-4.51-7.21-6.82-5.79-7.98-5.54-6.31 14.04-6.82 16.1c-.52 2.06 6.18 8.63 6.82 9.79.64 1.16.52 3.99.39 4.76s5.15 2.83 7.85 2.19c2.71-.65 10.05-9.54 4.25-20.09z" fill="#f0c7b1" stroke-width="none" opacity="1" stroke="none"></path><path id="SvgjsPath7814" d="M68.03 90.6s-5.92-8.11-9.91-10.82c-3.99-2.7-5.67 7.73-5.41 8.76s4.64 6.31 6.31 7.08 7.33-.64 9.01-5.02z" fill="#e1ac8f" stroke-width="none" opacity="1" stroke="none"></path><path id="SvgjsPath7815" d="M49.09 87.02c-.06.22-.14.41-.16.67 0 .24.03.48.11.7.29.87.78 1.62 1.26 2.35.49.73 1.03 1.43 1.58 2.12 1.09 1.38 2.25 2.71 3.34 4.05.13.17.27.34.36.49.09.15.15.33.21.52.11.38.16.8.19 1.22.06.84.05 1.71-.04 2.55l-.04.31c-.02.4.16.52.24.63.21.22.41.34.61.47.41.25.82.44 1.24.61.84.35 1.69.62 2.57.82.88.2 1.78.33 2.72.29.47-.02.95-.08 1.43-.3.26-.08.43-.23.64-.35.21-.12.39-.27.57-.42 2.81-2.39 4.39-5.88 4.78-9.42.13-.89.07-1.78.07-2.67-.12-.88-.17-1.77-.43-2.62-.36-1.73-1.1-3.35-1.9-4.91-.79-1.57-1.65-3.09-2.54-4.6-.45-.76-.92-1.5-1.44-2.22-.53-.72-1.15-1.36-1.79-1.97a28.138 28.138 0 0 0-4.17-3.28c-.38-.24-.76-.48-1.18-.67-.2-.1-.43-.18-.65-.27-.24-.06-.49-.15-.87-.07-.46.23-.48.42-.65.62-.13.2-.25.39-.36.59-.22.39-.42.79-.61 1.19-1.46 3.22-2.59 6.54-3.8 9.83l-.87 2.48-.42 1.26zm.13.69c.01-.17.09-.4.14-.6l.4-1.25c.28-.83.59-1.65.9-2.47.61-1.64 1.28-3.26 1.97-4.86.69-1.6 1.41-3.2 2.19-4.75.19-.39.39-.77.6-1.14.11-.18.22-.36.33-.53.06-.09.12-.15.17-.23.03-.04.08-.07.09-.08.03 0 .08 0 .14.01.09.02.17.04.26.07.18.07.37.14.56.24.37.18.75.39 1.12.6 1.47.89 2.86 1.95 4.2 3.05.66.56 1.3 1.14 1.85 1.8.55.66 1.06 1.38 1.55 2.1.97 1.45 1.83 2.98 2.66 4.52 1.61 3.08 2.43 6.67 1.76 10.07-.3 1.69-.84 3.33-1.65 4.84-.81 1.49-1.83 2.91-3.12 3.96-.16.14-.32.26-.49.36-.17.09-.34.24-.51.28-.31.16-.72.21-1.12.22-.81.03-1.66-.09-2.49-.26-.83-.18-1.65-.42-2.44-.73a9.77 9.77 0 0 1-1.13-.53c-.17-.1-.34-.22-.44-.31l-.03-.03.03-.26c.07-.91.08-1.8-.01-2.7a7.4 7.4 0 0 0-.26-1.36c-.08-.23-.16-.46-.31-.69a5 5 0 0 0-.43-.55c-1.16-1.35-2.37-2.59-3.51-3.92-.57-.66-1.12-1.33-1.64-2.03-.51-.7-1.01-1.43-1.28-2.23-.03-.22-.06-.42-.06-.61z" fill="#e1ac8f" stroke-width="none" opacity="1" stroke="none"></path><path id="SvgjsPath7816" d="M54.5 82.01c.34-.68.71-1.4 1.37-1.89.31-.25.82-.37 1.21-.16.39.19.65.53.87.83.92 1.24 1.7 2.57 2.38 3.94 1.31 2.76 2.4 5.61 3.21 8.56l-.08.03c-1.35-2.74-2.56-5.51-3.83-8.25-.62-1.37-1.2-2.78-1.98-4.06-.19-.33-.41-.61-.7-.78-.29-.16-.64-.09-.93.11-.56.44-.91 1.14-1.21 1.81-.55 1.39-.85 2.89-.94 4.35-.02.36-.02.73.04 1.06.02.17.06.31.11.43.09.16.16.32.26.47.37.63.8 1.24 1.25 1.84.45.6.9 1.2 1.38 1.78l.71.87c.06.07.12.13.18.2.2-.53.34-1.18.48-1.78l.43-2.13c-.6-.94-1.19-1.89-1.75-2.86l.07-.05c.75.89 1.48 1.79 2.19 2.7l.06.07-.01.12A29.5 29.5 0 0 1 59 91.5c-.14.77-.2 1.49-.53 2.33-.04.07-.05.11-.12.2-.03.04-.05.07-.13.13-.03.03-.07.05-.1.07-.06.03-.14.05-.21.05-.13.02-.29-.07-.35-.11l-.07-.06a.769.769 0 0 1-.13-.12c-.15-.15-.28-.29-.41-.43-.26-.29-.51-.58-.76-.88-.48-.6-.96-1.2-1.39-1.84-.44-.63-.86-1.28-1.24-1.97-.1-.17-.18-.36-.27-.54-.09-.24-.14-.46-.16-.67-.04-.42-.01-.82.03-1.21.18-1.57.68-3.04 1.34-4.44z" fill="#c27b55" stroke-width="none" opacity="1" stroke="none"></path></g></g><g id="svga-group-ears-right-move" transform="matrix(1,0,0,1,0,0)"><g id="svga-group-ears-right"><path id="SvgjsPath7817" d="M131.59 84.17s2.58-5.02 4.51-7.21 6.82-5.79 7.98-5.54 6.31 14.04 6.82 16.1c.52 2.06-6.18 8.63-6.82 9.79-.64 1.16-.52 3.99-.39 4.76.13.77-5.15 2.83-7.85 2.19-2.71-.65-10.05-9.54-4.25-20.09z" fill="#f0c7b1" stroke-width="none" opacity="1" stroke="none"></path><path id="SvgjsPath7818" d="M131.97 90.6s5.92-8.11 9.91-10.82c3.99-2.7 5.67 7.73 5.41 8.76-.26 1.03-4.64 6.31-6.31 7.08s-7.33-.64-9.01-5.02z" fill="#e1ac8f" stroke-width="none" opacity="1" stroke="none"></path><path id="SvgjsPath7819" d="m150.49 85.77-.87-2.48c-1.22-3.29-2.34-6.61-3.8-9.83-.19-.4-.39-.8-.61-1.19-.11-.2-.22-.39-.36-.59-.17-.2-.19-.39-.65-.62-.38-.08-.63.01-.87.07-.23.08-.45.16-.65.27-.42.19-.8.43-1.18.67-1.5.97-2.89 2.06-4.17 3.28-.64.61-1.26 1.25-1.79 1.97-.53.71-.99 1.46-1.44 2.22-.89 1.51-1.76 3.04-2.54 4.6-.8 1.56-1.54 3.17-1.9 4.91-.26.85-.3 1.74-.43 2.62 0 .89-.06 1.78.07 2.67.38 3.54 1.96 7.03 4.78 9.42.17.15.36.3.57.42.21.12.38.27.64.35.49.23.96.28 1.43.3.94.04 1.84-.09 2.72-.29.88-.2 1.74-.47 2.57-.82.42-.18.83-.37 1.24-.61.2-.13.4-.25.61-.47.08-.12.26-.23.24-.63l-.04-.31c-.09-.84-.09-1.71-.04-2.55.03-.42.09-.84.19-1.22.06-.19.12-.37.21-.52.1-.15.23-.33.36-.49 1.1-1.34 2.26-2.67 3.34-4.05.55-.69 1.08-1.39 1.58-2.12.49-.74.97-1.48 1.26-2.35.07-.22.11-.45.11-.7-.02-.27-.1-.45-.16-.67l-.42-1.26zm.19 2.53c-.27.8-.77 1.53-1.28 2.23s-1.07 1.37-1.64 2.03c-1.14 1.33-2.36 2.57-3.51 3.92-.14.17-.29.34-.43.55-.14.23-.23.46-.31.69a7.4 7.4 0 0 0-.26 1.36c-.09.9-.09 1.79-.01 2.7l.03.26c-.01.01-.01.02-.03.03-.1.1-.27.22-.44.31-.35.2-.73.38-1.13.53-.79.31-1.61.55-2.44.73-.83.17-1.67.29-2.49.26-.4-.01-.81-.07-1.12-.22-.17-.04-.34-.18-.51-.28-.17-.09-.33-.22-.49-.36-1.29-1.05-2.31-2.47-3.12-3.96-.81-1.5-1.35-3.15-1.65-4.84-.67-3.4.14-6.99 1.76-10.07.83-1.54 1.69-3.07 2.66-4.52.49-.72 1-1.43 1.55-2.1.55-.66 1.19-1.24 1.85-1.8 1.34-1.1 2.73-2.16 4.2-3.05.37-.22.74-.43 1.12-.6.19-.1.37-.17.56-.24.09-.03.17-.04.26-.07.07-.01.11-.01.14-.01.01.01.06.05.09.08.06.08.12.14.17.23.12.16.22.35.33.53.21.37.41.75.6 1.14.78 1.55 1.5 3.15 2.19 4.75.7 1.6 1.36 3.22 1.97 4.86.31.82.62 1.64.9 2.47l.4 1.25c.06.2.13.43.14.6.04.21.01.41-.06.61z" fill="#e1ac8f" stroke-width="none" opacity="1" stroke="none"></path><path id="SvgjsPath7820" d="M145.5 82.01c-.34-.68-.71-1.4-1.37-1.89-.31-.25-.82-.37-1.21-.16-.39.19-.65.53-.87.83-.92 1.24-1.7 2.57-2.38 3.94-1.31 2.76-2.4 5.61-3.21 8.56l.08.03c1.35-2.74 2.56-5.51 3.83-8.25.62-1.37 1.2-2.78 1.98-4.06.19-.33.41-.61.7-.78.29-.16.64-.09.93.11.56.44.91 1.14 1.21 1.81.55 1.39.85 2.89.94 4.35.02.36.01.73-.04 1.06-.02.17-.06.31-.11.43-.09.16-.16.32-.26.47-.37.63-.8 1.24-1.25 1.84-.45.6-.9 1.2-1.38 1.78l-.71.87c-.06.07-.12.13-.18.2-.2-.53-.34-1.18-.48-1.78l-.43-2.13c.6-.94 1.19-1.89 1.75-2.86l-.07-.05c-.75.89-1.48 1.79-2.19 2.7l-.06.07.01.12c.06.76.15 1.52.27 2.28.14.77.2 1.49.53 2.33.04.07.05.11.12.2.03.04.05.07.13.13.03.03.07.05.1.07.06.03.14.05.21.05.13.02.29-.07.35-.11l.07-.06c.05-.04.1-.08.13-.12.15-.15.28-.29.41-.43.26-.29.51-.58.76-.88.48-.6.96-1.2 1.39-1.84.44-.63.86-1.28 1.24-1.97.1-.17.18-.36.27-.54.09-.24.14-.46.16-.67.04-.42.01-.82-.03-1.21-.18-1.57-.68-3.04-1.34-4.44z" fill="#c27b55" stroke-width="none" opacity="1" stroke="none"></path></g></g><g id="svga-group-faceshape-wrap"><g id="svga-group-faceshape-single"><path id="SvgjsPath7172" d="M140.4 54.9c-2.2-10-6.3-16-15.2-20.8-9.3-5-25.2-4.8-25.2-4.8s-15.9-.2-25.2 4.8c-8.8 4.8-13 10.8-15.2 20.8-.9 4 0 13.6 0 13.6s1.6 12.3 1.7 18.2c.2 5.8 1.4 18 2.2 25.1.98 7.08 1.46 7.68 1.46 7.68 12.25 14.4 22.69 25.32 25.74 27.9 2.95 2.5 14.4 2.34 17.66.34 3.46-2.12 9.44-8.42 26.53-27.68 0 0 .27-1.05 1.07-8.15s2.13-16.31 2.54-25.19c.2-5.8 1.7-18.2 1.7-18.2.1-.1 1.1-9.6.2-13.6z" fill="#f0c7b1" stroke-width="none" opacity="1" stroke="none"></path><path id="SvgjsPath7173" d="M140.4 54.9c-2.2-10-6.3-16-15.2-20.8-9.3-5-25.2-4.8-25.2-4.8s-15.9-.2-25.2 4.8c-8.8 4.8-13 10.8-15.2 20.8-.9 4 0 13.6 0 13.6s1.6 12.3 1.7 18.2c.2 5.8 1.4 18 2.2 25.1.98 7.08 1.46 7.68 1.46 7.68 12.25 14.4 22.69 25.32 25.74 27.9 2.95 2.5 14.4 2.34 17.66.34 3.46-2.12 9.44-8.42 26.53-27.68 0 0 .27-1.05 1.07-8.15s2.13-16.31 2.54-25.19c.2-5.8 1.7-18.2 1.7-18.2.1-.1 1.1-9.6.2-13.6zm-.03 10.19-.33 3.24-.06.13c-.55 4.29-1.13 8.57-1.59 12.87-.24 2.14-.41 4.33-.56 6.47-.17 2.14-.39 4.28-.63 6.42-.49 4.28-1.14 8.54-1.72 12.82-.3 2.13-.6 4.3-.86 6.43l-.43 3.2-.23 1.59-.13.78-.08.41-10.86 12.02c-3.72 4.04-7.41 8.17-11.32 11.92-.98.92-1.98 1.83-3 2.6-.25.2-.51.36-.77.54-.14.1-.57.32-.71.37-.53.22-1.14.39-1.76.52-2.52.53-5.25.65-7.89.51-1.32-.09-2.64-.24-3.86-.56-.6-.16-1.19-.36-1.66-.61-.1-.07-.51-.34-.64-.46-.25-.21-.49-.43-.74-.66-1.98-1.83-3.9-3.82-5.82-5.78-3.83-3.94-7.58-7.98-11.27-12.06l-5.53-6.13-1.36-1.54-.68-.77-.17-.19s-.17-.3-.2-.42c-.36-1.24-.61-2.62-.85-3.96-.5-2.7-.79-5.41-1.12-8.16-.31-2.74-.65-5.47-.9-8.22-.26-2.74-.51-5.49-.7-8.23-.21-2.73-.23-5.5-.48-8.26-.21-2.76-.48-5.5-.78-8.25-.27-2.76-.67-5.47-.76-8.21-.12-2.74-.16-5.5.06-8.19.06-.67.14-1.34.28-1.97.14-.64.33-1.31.49-1.97.37-1.31.78-2.6 1.27-3.85.98-2.51 2.25-4.89 3.93-6.95 1.64-2.09 3.68-3.83 5.88-5.34 1.1-.76 2.26-1.43 3.44-2.08 1.16-.62 2.38-1.12 3.64-1.58 2.52-.9 5.16-1.51 7.83-1.97 2.67-.48 5.38-.8 8.09-1 2.72-.21 5.43-.32 8.16-.24 5.45.14 10.94.63 16.2 2.02 2.64.7 5.16 1.68 7.52 3.07 2.36 1.36 4.6 2.96 6.51 4.92 1.86 1.99 3.45 4.26 4.57 6.77 1.14 2.5 1.94 5.14 2.54 7.83.23 1.1.29 2.24.33 3.37.03 1.13.01 2.27-.03 3.4-.1 1.13-.16 2.26-.26 3.39z" fill="#c27b55" stroke-width="none" opacity="1" stroke="none"></path></g></g><g id="svga-group-mouth-single-move" transform="matrix(1,0,0,1,0,0)"><g id="svga-group-mouth-single"><path id="SvgjsPath7445" d="M119.75 120.2c-2.07.95-4.03 1.44-5.29 1.57-4.78.49-8.33.87-12.75 2.53-1.8.7-2.7.9-4.5.4-1.4-.4-2.8-.7-4.2-.9-2.1-.32-4.18.13-6.29.2-1.2.04-2.44-.29-3.84-.62-.7 0-1.25.22.14.97 3.11 1.68 5.12 1.2 8.62 2 2.4.5 6.2 3.44 8.6 2.64 3-1 6.57-3.23 9.57-4.23 3.3-1 4.76-.51 9.4-3.4.65-.45.99-1.37.54-1.16z" fill="#da7c87" stroke-width="none" opacity="1" stroke="none"></path></g></g><g id="svga-group-eyes-left-move" transform="matrix(1,0,0,1,0,0)"><g id="svga-group-eyes-left"><g id="svga-group-eyesback-left"><path id="SvgjsPath8643" d="M80.2 74.2c7.5 0 13.5 5.8 13.5 13s-6 13-13.5 13-13.5-5.8-13.5-13 6-13 13.5-13z" fill="#ffffff" stroke-width="none" opacity="1"></path></g><g id="svga-group-eyesiriswrapper-left" transform="matrix(1,0,0,1,0,0)"><g id="svga-group-eyesiriscontrol-left" transform="matrix(1,0,0,1,0,0)"><g id="svga-group-eyesiris-left"><path id="SvgjsPath9144" d="M80.2 81.9c2.9 0 5.3 2.4 5.3 5.3s-2.4 5.3-5.3 5.3-5.3-2.4-5.3-5.3 2.4-5.3 5.3-5.3z" fill="#43559b" stroke-width="none" opacity="1"></path><path id="SvgjsPath9145" d="M80.2 92.8c-3.1 0-5.6-2.5-5.6-5.5 0-3.1 2.5-5.6 5.5-5.6 3.1 0 5.6 2.5 5.6 5.5.1 3.1-2.4 5.6-5.5 5.6zm0-10.6c-2.8 0-5 2.3-5 5.1s2.3 5 5.1 5 5-2.3 5-5.1c-.1-2.8-2.4-5-5.1-5z" fill="#384b94" stroke-width="none" opacity="1"></path><path id="SvgjsPath9146" d="M80.2 82.7c2.5 0 4.5 2 4.5 4.5s-2 4.5-4.5 4.5-4.5-2-4.5-4.5 2-4.5 4.5-4.5z" fill="#4e60a3" stroke-width="none" opacity="1"></path><path id="SvgjsPath9147" d="M80.2 84.3c1.6 0 2.9 1.3 2.9 2.9s-1.3 2.9-2.9 2.9-2.9-1.3-2.9-2.9 1.3-2.9 2.9-2.9z" fill="#000000" stroke-width="none" opacity="1"></path><path id="SvgjsPath9148" d="M78.9 84.3c.6 0 1 .4 1 1s-.4 1-1 1-1-.4-1-1 .4-1 1-1zm3.3 4.6c.2 0 .4.2.4.4s-.2.4-.4.4-.4-.2-.4-.4.2-.4.4-.4z" fill="#ffffff" stroke-width="none" opacity="1"></path></g></g></g><g id="svga-group-eyesfront-left"><path id="SvgjsPath8651" d="M80.2 73.7c-7.8 0-14.1 6.1-14.1 13.6s6.3 13.6 14.1 13.6 14.1-6.1 14.1-13.6S88 73.7 80.2 73.7zm-4.9 20.2c-4.8-1.7-6.4-6.7-7.2-10.1-.9-3.5 13.8-3.5 17.5-.4 3.8 3 5.3 7.3 5.5 9.6.1-.1-11 2.6-15.8.9z" fill="#f0c7b1" stroke-width="none" opacity="1" stroke="none"></path><path id="SvgjsPath8652" d="M91.1 92.5c-.1-.5-.1-1-.3-1.4l-.3-.9c-.5-1.9-1.5-4.5-3-6.2-1.2-1.3-4.1-4.4-9-4.4s-8.2 1.6-8.8 1.9c-.2.1-.5.3-.7.5-.4.2-.8.5-1.1 1-.1.2-.1.3-.1.5-.1.1-.1.2-.1.2h.1c0 .1 0 .3.1.4.1.3.2.6.2.9l.6 1.8c.4 1.2.9 2.3 1.6 3.4.7 1.1 1.5 2 2.5 2.8s2.2 1.3 3.4 1.6c2.5.5 5 .3 7.5 0s4.9-.8 7.3-1.5c.2-.2.2-.4.1-.6zm0 .4c-2.4.4-4.9.8-7.3 1.1-1.2.1-2.5.2-3.7.2-1.2 0-2.5 0-3.7-.2-2.4-.4-4.6-1.9-5.8-4-.7-1-1.2-2.2-1.6-3.3-.2-.6-.4-1.2-.5-1.8-.1-.3-.2-.6-.2-.9 0-.2-.1-.3-.1-.4 1.4-.4 6.6-1.9 10.5-1.9 4.5.1 7.9 3.6 9.3 5.1 1.2 1.1 3 5.1 3.1 6.1z" fill="#000000" stroke-width="none" opacity="1" stroke="none"></path></g></g></g><g id="svga-group-eyes-right-move" transform="matrix(1,0,0,1,0,0)"><g id="svga-group-eyes-right"><g id="svga-group-eyesback-right"><path id="SvgjsPath8644" d="M119.8 74.2c7.5 0 13.5 5.8 13.5 13s-6 13-13.5 13-13.5-5.8-13.5-13 6-13 13.5-13z" fill="#ffffff" stroke-width="none" opacity="1"></path></g><g id="svga-group-eyesiriswrapper-right" transform="matrix(1,0,0,1,0,0)"><g id="svga-group-eyesiriscontrol-right" transform="matrix(1,0,0,1,0,0)"><g id="svga-group-eyesiris-right"><path id="SvgjsPath9149" d="M119.8 82.5c2.6 0 4.7 2.1 4.7 4.7s-2.1 4.7-4.7 4.7-4.7-2.1-4.7-4.7 2.1-4.7 4.7-4.7z" fill="#384b94" stroke-width="none" opacity="1"></path><path id="SvgjsPath9150" d="M119.8 92.1c-2.7 0-4.9-2.2-4.9-4.9s2.2-4.9 4.9-4.9 4.9 2.2 4.9 4.9-2.2 4.9-4.9 4.9zm0-9.3c-2.4 0-4.4 2-4.4 4.4s2 4.4 4.4 4.4 4.4-2 4.4-4.4c0-2.4-2-4.4-4.4-4.4z" fill="#253984" stroke-width="none" opacity="1"></path><path id="SvgjsPath9151" d="M119.8 83.2c2.2 0 4 1.8 4 4s-1.8 4-4 4-4-1.8-4-4 1.8-4 4-4z" fill="#43559b" stroke-width="none" opacity="1"></path><path id="SvgjsPath9152" d="M119.8 83.8c1.9 0 3.4 1.5 3.4 3.4s-1.5 3.4-3.4 3.4-3.4-1.5-3.4-3.4 1.5-3.4 3.4-3.4z" fill="#4e60a3" stroke-width="none" opacity="1"></path><path id="SvgjsPath9153" d="M119.8 84.7c1.4 0 2.5 1.1 2.5 2.5s-1.1 2.5-2.5 2.5-2.5-1.1-2.5-2.5 1.1-2.5 2.5-2.5z" fill="#000000" stroke-width="none" opacity="1"></path><path id="SvgjsPath9154" d="M118.7 84.7c.5 0 .9.4.9.9s-.4.9-.9.9-.9-.4-.9-.9.4-.9.9-.9zm2.9 4c.2 0 .3.1.3.3s-.1.3-.3.3-.3-.1-.3-.3.1-.3.3-.3z" fill="#ffffff" stroke-width="none" opacity="1"></path></g></g></g><g id="svga-group-eyesfront-right"><path id="SvgjsPath8653" d="M119.8 73.7c-7.8 0-14.1 6.1-14.1 13.6s6.3 13.6 14.1 13.6 14.1-6.1 14.1-13.6-6.3-13.6-14.1-13.6zm5.3 19.5c-4.4 1.8-15 .1-15 .1.1-1.9 1.3-5.8 4.7-8.7 3.4-2.9 17.2-3.8 16.6-.7-.7 3.1-1.9 7.6-6.3 9.3z" fill="#f0c7b1" stroke-width="none" opacity="1" stroke="none"></path><path id="SvgjsPath8656" d="M131.6 84.1s0-1.3-.9-1.7c-.6-.2-4.4-1-9.1-.7-2.6.2-4.6 1.1-6.1 2.1-.3.2-.6.3-.8.5-.9.8-1.7 1.6-2.4 2.6-1.3 1.9-2.3 4.1-2.3 6.4 0 .3.1.8.1.8s.1-.3.2-.7c2.2.4 4.3.7 6.6.8 1.2.1 2.3.1 3.4.1 1.2 0 2.3-.2 3.4-.4s2.2-.8 3.2-1.4c.9-.7 1.7-1.6 2.4-2.5.6-1 1.1-2 1.5-3.1.2-.5.3-1.1.5-1.7l.2-.8c0-.1 0-.1.1-.2v-.1zm-.4.1-.2.8c-.1.6-.3 1.1-.4 1.7-.4 1.1-.8 2.1-1.4 3.1-1.2 1.9-3.3 3.2-5.5 3.6-.6.1-1.1.2-1.7.3-.6 0-1.1.1-1.7.1-1.1.1-2.3.1-3.4 0-2.2-.1-4.4-.2-6.6-.4.4-1.5 1.5-4.6 2.4-5.7 1.2-1.5 4.2-4.5 8.5-4.9 3.6-.3 8.6.8 10 1.2v.2z" fill="#000000" stroke-width="none" opacity="1" stroke="none"></path></g></g></g><g id="svga-group-facehighlight-single"></g><g id="svga-group-eyebrows-left-move" transform="matrix(1,0,0,1,0,0)"><g id="svga-group-eyebrows-left-rotate" transform="matrix(1,1.7453292519943295e-9,-1.7453292519943295e-9,1,1.2391838311032188e-7,-1.3753196981269866e-7)"><g id="svga-group-eyebrows-left"><path id="SvgjsPath9741" d="M93.2 68.2s-1.8 4.7-3.3 5.6-18.1.7-18.1.7-4.2 2.2-5.5 3.9l3.3-8.3.4.4 10.4-1.7-1.2.8 13-1.7-1.3 2.2 2.3-1.9z" fill="#2a232b" stroke-width="none" opacity="1"></path><path id="SvgjsPath9742" d="m66 79.1.4-.6c.3-.4.7-.8 1.1-1.2.2-.2.4-.3.7-.5.2-.2.5-.3.7-.5.5-.3 1-.6 1.4-.9s1-.6 1.5-.8c2.2.1 4.3.1 6.4.1 2.2 0 4.3 0 6.5-.1 1.1-.1 2.2-.1 3.2-.2.5-.1 1.1-.1 1.6-.3l.2-.1c.1 0 .1-.1.2-.1.1-.1.2-.2.3-.2l.3-.3.2-.3c.3-.4.5-.8.8-1.2l.6-1.2c.2-.4.4-.8.5-1.2.1-.2.2-.4.2-.6l.1-.3.1-.2v-.2l-1.2.9c-.3.2-.5.4-.8.6l1.1-1.8.1-.2h-.3l-3.3.4-3.3.4c-1.1.1-2.2.3-3.3.4l-2.2.3.4-.2.9-.6-1.1.2-2.6.4-2.6.4-5.1.8-.4-.3-.2-.2-.1.3-1.6 4.2-.4 2.2c-.3.7-.5 1.4-.8 2.1l-.2.6zm.6-1.1c.2-.5.4-1.1.7-1.6l.8-2.1 1.6-3.8.2.2.1.1h.1l5.2-.8 2.6-.4 1.5-.2-.4.1-.8.5 1.1-.1 3.3-.4c1.1-.1 2.2-.3 3.2-.5l3.2-.5 3-.4-1.1 2-.3.5.4-.4 1.1-.9c.4-.3.7-.6 1.1-1l-.1.1v.1l-.1.1-.1.3-.3.6-.6 1.2c-.4.8-.9 1.6-1.4 2.3l-.2.3-.2.2c-.1.1-.2.1-.3.2l-.1.1-.2.1c-.5.1-1 .2-1.6.2-1.1.1-2.1.2-3.2.2-2.2.1-4.3.1-6.5.2-2.2 0-4.3.1-6.5.1-1 .6-2 1.1-3 1.8-.5.3-.9.7-1.4 1-.3.1-.6.4-.8.6zm23.1-9c-.6.3-1.1.7-1.6 1-.5.3-1.1.7-1.6 1.1-.5.4-1 .7-1.6 1.1s-1 .8-1.5 1.1l.4.2c.2-.7.3-1.3.4-2l.1-.4-.4.3c-.6.5-1.2 1-1.7 1.5.7-.4 1.3-.8 1.9-1.3l-.3-.1c-.2.7-.4 1.3-.6 1.9l-.2.6.6-.4c.5-.4 1-.7 1.5-1.1l1.5-1.2 1.5-1.2c.6-.3 1.1-.7 1.6-1.1zm-10.9 1.6c-.7.4-1.4.9-2.2 1.4-.7.5-1.4.9-2.1 1.4l.4.2c.1-.3.2-.6.4-1 .1-.3.2-.6.4-1l.2-.5-.5.2c-.5.2-1.1.5-1.6.7s-1 .5-1.5.8c-.5.3-1 .6-1.4.9-.4.3-.9.7-1.2 1.1.4-.3.9-.6 1.4-.9.5-.3 1-.6 1.5-.8.5-.2 1-.5 1.5-.7.5-.2 1-.5 1.6-.7l-.3-.2c-.1.3-.2.6-.4 1-.1.3-.2.6-.3 1l-.2.6.6-.4c.7-.5 1.3-1 2-1.5.4-.5 1.1-1 1.7-1.6z" fill="#1b141c" stroke-width="none" opacity="1"></path></g></g></g><g id="svga-group-eyebrows-right-move" transform="matrix(1,0,0,1,0,0)"><g id="svga-group-eyebrows-right-rotate" transform="matrix(1,1.7453292519943295e-9,-1.7453292519943295e-9,1,1.2705996255135688e-7,-2.123193070246998e-7)"><g id="svga-group-eyebrows-right"><path id="SvgjsPath9743" d="M108.2 71.1s2.3 4.4 3.6 5.2c1.4.7 15.7-1.3 15.7-1.3s4 1.7 5.3 3.2l-4-7.8-.3.4-9.2-.5 1.2.6-11.5-.2 1.4 2-2.2-1.6z" fill="#2a232b" stroke-width="none" opacity="1"></path><path id="SvgjsPath9744" d="M132.9 78.2c-.3-.7-.7-1.3-1-2l-1-2-2-3.9-.1-.3-.2.2-.3.3-4.5-.3-2.3-.1-2.3-.1-1-.1.9.5.4.2H108.7l.1.2 1.2 1.6c-.2-.2-.5-.3-.8-.5-.4-.2-.8-.5-1.1-.8v.2l.1.2.2.3.3.6c.2.4.4.8.7 1.2.2.4.5.8.7 1.1s.5.7.8 1.1l.2.3.3.2c.1.1.2.1.3.2.1 0 .1.1.2.1h.2c.5.1 1 .1 1.4.1.9 0 1.9-.1 2.8-.2 1.9-.1 3.7-.4 5.6-.6 1.8-.2 3.7-.5 5.5-.8.5.2.9.4 1.4.6.5.2.9.5 1.4.7.2.1.4.3.7.4.2.1.4.3.6.4.4.3.8.6 1.1 1l.4.5-.1-.5zm-1.2-1.1c-.4-.3-.9-.6-1.3-.8-.9-.5-1.8-1-2.8-1.4-1.8.2-3.7.5-5.6.7-1.9.2-3.7.4-5.6.6-.9.1-1.9.2-2.8.2-.5 0-.9 0-1.4-.1H111.9c-.1-.1-.2-.1-.3-.2l-.2-.2-.2-.2c-.6-.7-1.1-1.4-1.6-2.2-.2-.4-.5-.8-.7-1.1l-.3-.6-.2-.3-.1-.2v-.1l-.1-.1c.4.3.7.6 1.1.8l1.1.8.4.3-.3-.4-1.3-1.8 2.6.1 2.9.1c.9 0 1.9.1 2.9.1l2.9.1h.9l-.8-.4-.3-.2 1.3.1 2.3.1 4.6.2h.1l.1-.1.1-.2 1.9 3.6 1 1.9c.3.5.5 1 .8 1.5-.2-.2-.5-.4-.8-.6zm-20.4-5.6c.5.3 1 .6 1.6.8s1 .6 1.5.9l1.5.9 1.5.9-.3.2c-.2-.6-.4-1.3-.7-1.9l-.1-.4.3.3c.6.4 1.1.8 1.7 1.3-.6-.3-1.2-.7-1.8-1.1l.2-.2c.3.6.5 1.2.8 1.9l.2.6-.5-.3-1.5-.9c-.5-.3-1-.6-1.5-1s-1-.7-1.4-1c-.5-.3-1-.7-1.5-1zm9.6.3c.7.3 1.4.7 2.1 1.1s1.3.8 2 1.2l-.3.2c-.2-.3-.3-.6-.5-.9-.2-.3-.3-.6-.5-.9l-.2-.4.5.2c.5.2 1 .3 1.5.5s.9.4 1.4.6c.5.2.9.5 1.4.8.4.3.9.6 1.2.9-.4-.3-.9-.5-1.3-.8-.5-.2-.9-.4-1.4-.6-.5-.2-.9-.4-1.4-.6-.5-.2-1-.3-1.4-.5l.3-.3c.2.3.3.6.4.9.2.3.3.6.4.9l.3.6-.6-.4c-.7-.4-1.3-.8-1.9-1.3-.7-.3-1.4-.7-2-1.2z" fill="#1b141c" stroke-width="none" opacity="1"></path></g></g></g><g id="svga-group-beardwrap"><g id="svga-group-beard-single-move" transform="matrix(1,0,0,1,0,0)"><g id="svga-group-beard-single" transform="matrix(0.8499995000000001,0,0,0.8499995000000001,15.037550124999981,19.117562695028283)"><path id="SvgjsPath12370" d="M60 87.7c-1.9 1.7-4.9 12.5-5.5 18.9-.6 6.4 2.1 16.6 4 19.2l.9-3 .2 4.1s.7 7.5 7.1 15.4l1-1.6.9 3.7s4.7 6.3 14.3 11.4c9.6 5.1 25.3 3.2 25.3 3.2l.6-2.1.8 1.7s13.3-1.4 18-7.6l1.9-5.3.3 3.5s13.9-10.3 13.9-35.4l-1.3-3.6 2.1 2.3s.7-16.6-5.3-25.3c0 0-3.7-2.1-4.3 1.3s-2.4 11.1-3.6 16.6-11.9 26.1-17.9 30.5c-7.7 5.6-18.7 6.1-25.5 0-6.5-5.9-15.2-17.9-19.2-27.2-4.8-11.1-3.9-17.8-5-19.8s-3.7-.9-3.7-.9z" fill="#2a232b" stroke-width="none" opacity="1"></path><path id="SvgjsPath12371" d="M144.9 105.8c-.1-2.2-.4-4.4-.7-6.5-.4-2.2-.8-4.3-1.5-6.4-.7-2.1-1.6-4.1-2.8-6l-.1-.1-.1-.1c-.7-.4-1.5-.7-2.4-.7-.8-.1-1.9.4-2.3 1.3-.2.4-.3.8-.4 1.2l-.2 1.1-.5 2.2-1.9 8.8-1 4.4c-.4 1.4-.9 2.8-1.5 4.2-1.2 2.7-2.5 5.4-3.9 8.1-2.8 5.3-5.8 10.5-9.5 15.1-.9 1.1-1.9 2.2-3.1 3.1l-1.8 1.2c-.6.4-1.3.7-2 1-2.7 1.2-5.6 1.8-8.5 1.9-2.9.1-5.9-.5-8.5-1.8-1.3-.6-2.5-1.5-3.7-2.4-1.1-1-2.2-2-3.2-3.1-4.1-4.4-7.7-9.2-10.9-14.2-1.6-2.5-3.1-5.1-4.4-7.8-1.3-2.7-2.4-5.5-3.3-8.3-.8-3-1.5-6-1.8-9l-.3-2.2c-.1-.7-.2-1.5-.5-2.2-.3-.7-1.1-1.2-1.8-1.2-.8-.1-1.5 0-2.2.3-.6.6-1 1.4-1.3 2.1-.3.8-.7 1.5-.9 2.3-.6 1.6-1 3.1-1.5 4.7-.9 3.2-1.6 6.4-2 9.7-.3 3.3.1 6.7.8 9.9.3 1.6.7 3.2 1.2 4.8.5 1.6 1 3.2 2 4.6l.4.6.2-.7.4-1.2v.7l.1 1.3c0 .5.1.9.2 1.4.3 1.8.9 3.5 1.5 5.1.7 1.7 1.4 3.3 2.3 4.8.9 1.5 1.9 3 3 4.4l.3.4.3-.5.5-.7.7 2.7v.1l.1.1c2.3 3 5.2 5.4 8.2 7.6 3 2.1 6.2 4.1 9.8 5.4 3.5 1.2 7.3 1.7 10.9 1.9 3.7.2 7.4.1 11.1-.3h.2l.1-.2.4-1.5.5 1.1.1.2h.2c1.7-.2 3.3-.5 4.9-.9 1.6-.4 3.2-.9 4.8-1.4 1.6-.6 3.1-1.2 4.6-2.1 1.4-.9 2.8-1.9 3.8-3.3l1.7-4.6.3 2.8v.3l.2-.2c2.6-2.1 4.6-4.7 6.4-7.4 1.8-2.8 3.2-5.7 4.4-8.8.5-1.6 1.1-3.1 1.4-4.7l.6-2.4.4-2.4c.2-.8.3-1.6.3-2.4l.3-2.4c.1-1.6.1-3.3.2-4.9v-.1l-.7-2.1 1.1 1.2.6.6v-.8c-.1-2.3-.2-4.5-.3-6.7zm-1.8 15.1-.3 2.4-.4 2.4c-.1.8-.4 1.6-.6 2.4-.4 1.6-.9 3.1-1.4 4.7-1.1 3.1-2.5 6-4.3 8.7-1.7 2.6-3.7 5.1-6.1 7.2l-.3-3.2-.1-.7-.2.7-1.9 5.3c-1 1.3-2.3 2.3-3.7 3.1-1.4.9-2.9 1.5-4.5 2.1-1.6.6-3.2 1-4.8 1.4-1.6.4-3.1.6-4.7.8l-.8-1.5-.3-.6-.2.7-.6 1.9c-3.6.4-7.2.4-10.8.2-3.7-.3-7.3-.8-10.7-2-3.4-1.2-6.5-3.2-9.5-5.3-2.9-2.2-5.6-4.6-7.9-7.4l-.9-3.6-.2-.9-.5.8-.7 1.1c-.9-1.2-1.8-2.5-2.7-3.8-.9-1.5-1.7-3.1-2.3-4.7-.7-1.6-1.2-3.3-1.5-5-.1-.4-.2-.9-.2-1.3l-.1-1.3-.1-2.6-.1-1.9-.6 1.9-.7 2.3c-.7-1.2-1.2-2.5-1.6-3.8-.5-1.6-.9-3.2-1.2-4.8-.7-3.2-1.1-6.5-.8-9.8.3-3.3 1-6.5 1.8-9.7.4-1.6.9-3.2 1.4-4.8.3-.8.5-1.6.9-2.3.3-.7.7-1.5 1.2-2.1.7-.2 1.5-.3 2.2-.2.7.1 1.4.5 1.7 1.2.3.7.4 1.4.5 2.2l.2 2.2c.3 3 .9 5.9 1.7 8.8.8 2.9 1.9 5.7 3.2 8.4 1.3 2.7 2.8 5.3 4.4 7.9 3.2 5.1 6.8 10 10.8 14.4 1 1.1 2.1 2.2 3.2 3.2 1.2 1 2.4 1.9 3.8 2.6 2.8 1.4 5.9 1.9 8.9 1.9 3.1-.1 6.1-.7 8.9-2 .7-.3 1.4-.6 2.1-1 .7-.4 1.3-.8 1.9-1.2 1.3-.9 2.3-2.1 3.3-3.2 3.8-4.7 6.8-10 9.6-15.3 1.4-2.7 2.7-5.4 3.9-8.2.6-1.4 1.1-2.8 1.5-4.3l.9-4.4 1.9-8.8.5-2.2c.2-.7.3-1.5.5-2 .5-1.1 2.1-.9 3.3-.2 1.1 1.8 2 3.7 2.7 5.7.7 2 1.2 4.2 1.6 6.3.4 2.1.6 4.3.8 6.4.1 1.9.2 3.8.2 5.7l-1.6-1.7-1.1-1.2.5 1.5 1.3 3.6c-.1 1.6-.1 3.2-.2 4.8l-.1 2.1zm-83.9-17.5c-.2 1.8-.3 3.7-.2 5.6.1 1.8.3 3.7.8 5.5-.1-1.8-.2-3.7-.2-5.5 0-1.8.2-3.7.4-5.4.2-1.8.6-3.6 1-5.4s1-3.5 1.6-5.3c-.9 1.6-1.6 3.3-2.1 5.1-.7 1.7-1 3.6-1.3 5.4zm4.8 13.7c-.2-2-.3-4-.4-6.1v-6.1c-.4 2-.6 4.1-.6 6.1-.1 2.1 0 4.1.2 6.1s.5 4.1 1 6.1 1.1 4 1.8 5.8c-.5-2-.9-4-1.3-6-.2-1.9-.5-3.9-.7-5.9zm4.9 10.8c-.4-1.3-.7-2.6-1-3.8l-.9-3.9c0 1.3.2 2.7.3 4s.5 2.6.9 3.9c.4 1.3.8 2.6 1.3 3.8.5 1.2 1.1 2.5 1.8 3.6l-1.2-3.8c-.5-1.3-.9-2.5-1.2-3.8zM80 140.5c-.8-1.9-1.4-3.9-2-5.8-.5-2-.9-4-1.2-6.1 0 2.1.2 4.2.6 6.2.4 2.1 1.1 4.1 1.8 6 .8 1.9 1.8 3.8 3 5.5 1.2 1.7 2.5 3.4 4 4.8-1.3-1.6-2.5-3.3-3.5-5.1-1-1.8-1.9-3.6-2.7-5.5zM91.1 151c-.7-1.1-1.3-2.3-1.9-3.4-.6-1.2-1.1-2.4-1.6-3.6.2 1.3.6 2.6 1.1 3.9.5 1.2 1.1 2.4 1.8 3.6.7 1.1 1.5 2.2 2.4 3.2.9 1 1.9 1.9 2.9 2.7-.9-1-1.7-2-2.5-3.1s-1.5-2.2-2.2-3.3zm5.2-5.3c.2 1.9.7 3.8 1.2 5.6.6 1.8 1.3 3.6 2.3 5.2-.4-1.9-1-3.6-1.6-5.4-.6-1.9-1.2-3.7-1.9-5.4zm6.2 4.4c-.2 1.1-.1 2.3 0 3.4s.3 2.2.8 3.3c.2-1.1.1-2.3 0-3.4s-.3-2.2-.8-3.3zm12.5-3.7c-.2 2.2-.4 4.4-.4 6.6.7-2.1 1-4.3 1.2-6.5.2-2.2.2-4.4-.1-6.6-.4 2.1-.5 4.3-.7 6.5zm6.6-10.8-.6 4.5c-.2 1.5-.5 3-.7 4.5l-.9 4.5c.6-1.4 1-2.9 1.4-4.4.4-1.5.7-3 .9-4.5.2-1.5.4-3.1.4-4.6.1-1.5 0-3.1-.1-4.6-.1 1.6-.2 3.1-.4 4.6zm6.5-8.9-.7 4.8-.7 4.8c-.2 1.6-.5 3.2-.8 4.8.5-1.5 1-3.1 1.3-4.7.4-1.6.7-3.2.9-4.8.2-1.6.4-3.2.5-4.8.1-1.6.2-3.2.1-4.9l-.6 4.8zm5.5-6.7c-.2 1.8-.4 3.5-.7 5.2-.3 1.7-.7 3.5-1.1 5.2-.4 1.7-.9 3.4-1.4 5.1.8-1.6 1.4-3.3 1.9-5s.9-3.4 1.2-5.2c.3-1.8.5-3.5.6-5.3s0-3.6-.2-5.3c0 1.8-.1 3.6-.3 5.3zm4.3-16.6c-.5-1.8-1-3.6-1.7-5.3.4 1.8.8 3.6 1.1 5.4l.9 5.4c.2 1.8.4 3.7.5 5.5.1 1.8.2 3.7.3 5.5.2-1.8.3-3.7.3-5.6 0-1.9-.1-3.7-.4-5.6-.2-1.7-.5-3.5-1-5.3zm2.6-4c-.5-1.6-1.1-3.1-1.7-4.6-.6-1.5-1.3-3-2.1-4.4l1.6 4.6c.5 1.6 1 3.1 1.5 4.6.5 1.6 1 3.1 1.4 4.7l1.4 4.7c-.2-1.6-.5-3.2-.8-4.8-.4-1.6-.8-3.2-1.3-4.8zm1.3-2.5c-.1-1.2-.3-2.4-.7-3.6-.4-1.2-.8-2.3-1.4-3.4.1 1.2.4 2.4.7 3.6.3 1.2.7 2.4 1.4 3.4zM61.2 90c-1.2 1-2.1 2.2-2.8 3.6-.7 1.3-1.2 2.8-1.3 4.3.7-1.3 1.3-2.7 2-4l2.1-3.9z" fill="#1b141c" stroke-width="none" opacity="1"></path></g></g></g><g id="svga-group-mustache-single-move" transform="matrix(1,0,0,1,0,0)"><g id="svga-group-mustache-single"><path id="SvgjsPath12472" d="M75 124.4s-.3-6.8.5-8.8 9-2.1 11.2-2.1 8.4.6 8.4.6 4.9 1.1 9.1 0c0 0 17.1.1 19.7 1 2.6.9.4 9.9.4 9.9s-.2-3.6-1.7-4.8c-1.5-1.2-7.9.7-11.5.7s-8.1.1-9.2-.2l-1.6-3s-1 2.5-1.5 2.8c-.5.4-3.8.6-7.3.5-3.4-.1-11.7-1.5-13.1-.9-1.2.7-2.8 2.3-3.4 4.3z" fill="#2a232b" stroke-width="none" opacity="1"></path><path id="SvgjsPath12473" d="M125.4 117.5c-.1-.6-.2-1.3-.6-1.9-.2-.3-.5-.6-.8-.7-.3-.1-.6-.2-.9-.2-1.3-.2-2.5-.3-3.8-.3l-7.5-.3-7.5-.2h-.1c-1.5.3-3 .4-4.5.4-1.5-.1-3-.2-4.5-.5-2.4-.2-4.8-.5-7.2-.6-2.4-.1-4.9.1-7.3.3-1.2.2-2.4.4-3.6.8-.6.2-1.2.5-1.6 1.1-.3.6-.4 1.2-.5 1.8-.1 1.2-.1 2.4-.1 3.6 0 1.2 0 2.4.2 3.7.1-.1.2-.3.2-.5.1-.1.1-.3.2-.4.1-.3.3-.5.4-.8.3-.5.7-1 1.2-1.4.4-.4.9-.8 1.5-1 .5-.2 1.1-.2 1.7-.2 2.4.1 4.8.5 7.3.8 1.2.1 2.4.3 3.7.4 1.2.1 2.5.1 3.7.1 1.2 0 2.4-.1 3.8-.3.2 0 .3-.1.6-.2.2-.2.3-.3.4-.5.2-.3.3-.6.5-.8.1-.2.2-.5.3-.8l1.1 2.1.1.2.2.1c.7.2 1.2.2 1.8.2.6 0 1.1.1 1.7.1h3.3c1.1 0 2.2 0 3.3-.1 1.1-.1 2.2-.2 3.3-.4 2.1-.3 4.3-.8 6.4-.8.2 0 .5.1.7.1.2.1.3.2.5.3.3.3.6.8.8 1.3.4 1 .6 2 .7 3.1l.2 2.3.4-2.2c.1-2.6.5-5.1.3-7.7zm-45.2 2.3c-.6 0-1.3 0-1.9.3-.6.3-1.1.7-1.5 1.2-.4.4-.8.9-1.1 1.5-.2.3-.3.6-.4.8-.1.1-.1.3-.2.4-.1.1 0 .2-.1.4.1-2.3 0-4.8.4-7.2.1-.6.2-1.2.5-1.6.3-.4.8-.6 1.4-.8.3-.1.6-.2 1-.3-.7.8-1.2 1.8-1.7 2.8-.2.6-.5 1.1-.6 1.7s-.3 1.2-.2 1.8c.7-2.2 1.8-4.2 2.7-6.4.8-.2 1.6-.3 2.4-.3 1.3-.1 2.6-.2 3.9-.2-.4.2-.9.3-1.3.5l-1.8.9c-.6.3-1.2.7-1.7 1.2-.5.4-1.1.9-1.4 1.5.5-.5 1.1-.9 1.6-1.2.6-.4 1.2-.7 1.7-1.1l1.8-1c.5-.3.9-.6 1.4-.9H88c1.2.1 2.5.2 3.7.3-.8.7-1.5 1.4-2.3 2-.9.8-1.9 1.5-2.9 2.2.6-.2 1.1-.5 1.7-.8.5-.3 1-.7 1.5-1.1.5-.4.9-.8 1.3-1.3.3-.3.6-.7.8-1.1l3.3.3c.4.1.8.2 1.3.2-1.2 1.2-2.4 2.2-3.8 3.2-.7.5-1.4 1-2.2 1.4-.6.4-1.2.7-1.9 1-.3 0-.7-.1-1.1-.1-2.3.1-4.8-.2-7.2-.2zm34.6.3c-1.1.2-2.1.3-3.2.3h-6.4c-.5 0-1.1 0-1.6-.1-.4 0-.9-.1-1.3-.1l-1.5-2.8-.5-.9-.4 1c-.2.6-.5 1.1-.7 1.6-.1.3-.3.5-.4.8l-.2.2s-.1.1-.2.1c-1.1.2-2.3.3-3.5.4-1.2.1-2.4.1-3.6 0-.8 0-1.6-.1-2.4-.2 1.5-.5 2.9-1.2 4.1-2.1.7-.5 1.4-1.1 2-1.7.6-.6 1.1-1.2 1.5-1.9 1.1.2 2.2.2 3.3.2 1.5 0 3.1-.2 4.6-.6h7c.5.7 1.1 1.3 1.7 2 .6.6 1.3 1.2 2 1.7s1.5.9 2.4 1.2l.9.3h-.1l-3.5.6zm7.5-.5c-.3-.1-.6-.2-.9-.2-.9-.1-1.8 0-2.6.1-.4-.2-.9-.4-1.3-.6-.8-.4-1.5-.7-2.2-1.2-.7-.5-1.3-1-2-1.6-.7-.6-1.3-1.1-1.9-1.7h.5c2.1.1 4.3.1 6.4.2.4.6.8 1.1 1.3 1.6s.9 1 1.5 1.5c.6.4 1 .8 1.4 1.4.1.2.2.4.4.6-.3 0-.4-.1-.6-.1zm.9.6c-.1-.4-.3-.8-.5-1.2l-.6-.9c-.2-.3-.5-.5-.8-.7-1-.9-2-1.8-3.1-2.7.4 0 .7 0 1.1.1 1.2.1 2.5.2 3.7.4.3 0 .6.1.9.2.2.1.4.3.6.5.3.5.4 1.1.4 1.7v.9c-.1-.2-.2-.5-.3-.7-.4-.7-.9-1.4-1.5-1.9.3.7.7 1.4 1.1 2.1.2.3.3.7.5 1.1.1.2.1.4.2.5-.1 1.2-.3 2.3-.5 3.5-.1-.5-.2-.9-.4-1.4-.2-.5-.4-1-.8-1.5zm-26.8-1.4c-.3.3-.6.7-.8 1.1.8-.4 1.5-1.1 2-1.8.6-.7 1-1.5 1.3-2.4-.6.7-1.2 1.4-1.7 2l-.8 1.1zm5.4-3.7c.4 1.1 1 2 1.7 2.9.3.4.7.9 1.1 1.3.4.4.8.8 1.4 1-.8-.8-1.4-1.7-2.1-2.6-.7-.8-1.4-1.7-2.1-2.6zm6 1.2c-.5-.6-1-1.2-1.6-1.8.3.8.7 1.5 1.2 2.1.5.6 1.1 1.2 1.8 1.6-.2-.3-.5-.7-.7-1-.2-.3-.4-.6-.7-.9z" fill="#1b141c" stroke-width="none" opacity="1"></path></g></g><g id="svga-group-nose-single-move" transform="matrix(1,0,0,1,0,0)"><g id="svga-group-nose-single"><path id="SvgjsPath7353" d="M99.1 116.5c.67.12 4.53-3.31 4.53-3.31s2.06 1.59 3.62 1.43c1.56-.16 2.44-1.08 3-1.96.56-.88-.89-3.1-1.78-4.41-.9-1.31-3.54-5.22-4.09-7.02-1.07-3.45-3-4.76-4.92-4.64-1.92.12-4.04 1.52-4.6 3.44-.56 1.92-.72 4.28-1.8 5.76s-3.32 4-3.56 4.72c-.24.72-.11 2.8 1.24 3.56 1.73.97 4.3-.51 4.3-.51s3.18 2.78 4.06 2.94z" fill="#f0c7b1" stroke-width="none" opacity="1" stroke="none"></path><path id="SvgjsPath7354" d="M110.28 110.87c-.42-1.01-1.08-1.86-1.81-2.61.57.88 1.08 1.8 1.39 2.76.15.48.24.97.16 1.42-.05.23-.12.41-.26.6-.13.2-.29.39-.47.54-.69.66-1.7.91-2.68.78-.49-.06-.99-.2-1.46-.39-.45-.16-.86-.39-1.29-.62.38-.56.72-1.15 1.02-1.76-.97.91-1.89 1.83-2.87 2.64-.49.4-.98.8-1.51 1.09-.51.3-1.07.55-1.51.52-.12.01-.21-.02-.31-.04-.09-.05-.17-.06-.3-.16-.24-.15-.49-.36-.74-.55-.5-.39-.99-.82-1.49-1.23-.99-.84-1.99-1.69-3.07-2.48a21.8 21.8 0 0 0 1.68 2.24c-.5.22-1.01.41-1.53.52-.64.12-1.3.15-1.84-.1-1.09-.53-1.72-1.83-1.54-2.94.05-.28.13-.5.3-.74.17-.26.36-.53.56-.79.4-.52.82-1.02 1.26-1.52l.66-.74c.26-.28.46-.56.67-.84.41-.57.77-1.18 1.07-1.83.3-.65.48-1.4.59-2.06.12-.68.22-1.35.3-2.02.15-1.35.27-2.69.31-4.04.1-2.7.03-5.42-.51-8.07.05 2.69-.14 5.35-.4 8-.15 1.32-.29 2.65-.5 3.96-.1.66-.2 1.31-.32 1.96-.12.66-.27 1.22-.54 1.79a9.34 9.34 0 0 1-.94 1.65c-.18.26-.37.53-.57.74-.23.26-.45.51-.66.78-.43.53-.85 1.07-1.24 1.63-.2.28-.39.57-.57.88-.2.33-.34.76-.37 1.14-.13 1.57.85 3.05 2.25 3.55.73.23 1.47.11 2.12-.11.54-.19 1.03-.46 1.49-.77.24.28.47.57.71.84.44.5.91.96 1.41 1.42.25.23.51.44.82.65.13.1.36.22.57.3.22.06.44.12.66.11.88 0 1.55-.38 2.14-.76.58-.41 1.1-.86 1.55-1.37.44-.48.84-.99 1.21-1.53.75.66 1.64 1.25 2.68 1.45.54.12 1.11.12 1.66 0 .55-.14 1.07-.41 1.49-.8.21-.19.39-.42.54-.65.17-.23.29-.54.32-.84.06-.55-.08-1.1-.29-1.6z" fill="#c27b55" stroke-width="none" opacity="1" stroke="none"></path></g></g><g id="svga-group-hair-front"><path id="SvgjsPath12304" d="M76.1 30.7s-5-.6-11.9 4.5-9.5 13.2-10.1 21.1c-.6 7.9 2.6 20.4 5.6 28.4s2.3 25.1-6 38.5c0 0 6.7-7.8 8.7-17.6 0 0-.6 15.7-4.8 25.4 0 0 6.7-10.7 7.6-22.9 0 0 1.9 21.7-8.9 33.9 0 0 10.1-10.6 11.3-28 1.2-17.4-3.4-31.2-3.8-42.1s1-19.8 8.1-23.8c7-4 12.2-1.2 12.2-1.2s5.4 1.6 8.1-.4c0 0 6.3 2.6 14.1.3 0 0 8.4-.3 10.8-3.5 0 0 .9.6 2.8-.2 1.9-.7 5.3-2.2 12.5 6s6.9 20.2 6.3 24.6c-.6 4.4-4.4 19.1-4.5 29.6s4.4 27.7 13.9 35.2c0 0-10.7-12.6-8.6-26.4 0 0 1.3 13.6 10 25.1 0 0-7.6-12.2-7.3-25.8s2.9-50.3 2.8-55.7-.4-19.2-6.6-30.6S122.1 9 111.8 7.3s-17.8.3-23.6 3.1-9.5 8.1-11.1 12.3-1 8-1 8z" fill="#2a232b" stroke-width="none" opacity="1" stroke="none"></path><path id="SvgjsPath12305" d="M140.9 130.4c-2-3.3-3.4-7-4.4-10.7-2-7.5-2-15.4-1-23.1 1-7.7 2.6-15.4 4.1-23.1 1.5-7.7 2.7-15.6 2.4-23.5-.1-4-.7-8-1.8-11.8-1.1-3.9-2.7-7.6-5-10.9-2.3-3.3-5.3-6.2-9-8-3.6-1.9-7.8-2.6-11.8-2.4-4 .2-7.9 1.1-11.7 2.6-3.7 1.5-7.2 3.4-10.3 6-1.5 1.3-2.8 2.9-3.8 4.6-1 1.7-1.6 3.7-1.8 5.7-.1 2 .2 4 1 5.8.4.9.9 1.8 1.6 2.5.7.7 1.4 1.3 2.3 1.8-.8-.5-1.6-1.2-2.2-1.9-.6-.8-1.1-1.6-1.4-2.5-.7-1.8-.9-3.8-.7-5.7.4-3.9 2.8-7.2 5.7-9.6 2.9-2.5 6.4-4.2 10.1-5.6 3.6-1.3 7.4-2.1 11.2-2.2 3.8-.1 7.6.7 11 2.4 2.6 1.3 4.9 3.2 6.7 5.5-1.1-.9-2.4-1.7-3.7-2.4-2.1-1-4.4-1.6-6.7-1.8-2.3-.1-4.7.3-6.9 1-4.4 1.5-8.3 4.6-10.5 8.7-1.2 2-1.9 4.3-1.9 6.6 0 1.2.1 2.3.6 3.4.4 1.1 1.1 2 2 2.7-1.5-1.7-1.9-4-1.6-6 .2-2.1 1.1-4.1 2.3-5.9 1.2-1.8 2.6-3.4 4.3-4.6 1.7-1.3 3.5-2.3 5.5-3 4-1.4 8.4-1.4 12.3.3 2.6 1.1 5 2.7 7 4.8 1.5 2.6 2.7 5.5 3.5 8.4-.9-1-1.9-1.9-3.1-2.5-1.3-.7-2.7-1.1-4.2-1.4-2.9-.4-5.8 0-8.5 1.1-1.3.6-2.6 1.3-3.6 2.4-1 1-1.7 2.4-1.8 3.8.5-1.3 1.4-2.3 2.4-3.1 1-.8 2.3-1.3 3.5-1.7 2.5-.7 5.1-1 7.7-.6 2.5.4 4.9 1.4 6.7 3.2.7.7 1.3 1.5 1.8 2.4.5 2.6.8 5.2.8 7.8.1 1.9.1 3.9 0 5.8l-.3-1.2c-.4-1.7-1.1-3.4-2-5-.9-1.6-2.1-3-3.4-4.2-1.4-1.2-3-2.2-4.7-2.8-3.4-1.2-7.4-1-10.3 1 1.1-.4 2.3-.7 3.4-.7 3.5 1.3 6.3 3.6 8.5 6.4 2.2 2.9 3.8 6.2 4.7 9.6.9 3.5 1.2 7.2 1.3 10.8.1 2.2 0 4.3 0 6.5-1.3 6.6-2.6 13.3-3.3 20.1-.8 7.8-.6 15.9 1.6 23.5 1.2 3.8 2.7 7.4 4.9 10.7 2.1 3.3 4.9 6.2 8.1 8.4-2.9-2.1-5.6-5-7.6-8.4zm-8.5-82c-2.5-2.8-5.9-4.9-9.6-5.5 2.2-.1 4.3.3 6.2 1.2 3 1.3 5.4 3.7 6.9 6.5 1.6 2.8 2.5 6.1 2.9 9.4.2 2.2.2 4.3.1 6.6v.3c0-2.8-.3-5.6-1-8.4-1.1-3.7-2.9-7.3-5.5-10.1zM77 33.7c-1.2-4.3-.6-8.9 1.5-12.7 2-3.9 5.2-7.1 9-9.2C91.3 9.6 95.6 8.4 100 8c8.7-.8 17.9.7 25.3 5.3 3.7 2.3 6.9 5.4 9.4 8.9 2.5 3.6 4.4 7.6 5.7 11.8s2.1 8.5 2.5 12.9c.4 4.4.3 8.8 0 13.3-.6 8.9-2.3 17.7-3.4 26.6-1.2 8.9-1.8 18-.5 26.9.7 4.5 1.8 8.9 3.5 13 1.8 4.2 4.1 8 7.2 11.3-2.9-3.4-5.1-7.4-6.7-11.5-1.6-4.2-2.5-8.6-3.1-13-.5-4.4-.6-8.9-.4-13.3.2-4.4.8-8.9 1.4-13.3 1.3-8.8 3-17.7 3.7-26.7.4-4.5.5-9 .1-13.6-.4-4.5-1.2-9-2.6-13.4-1.4-4.3-3.4-8.5-6.1-12.3-2.7-3.7-6.1-7-10-9.4-3.9-2.4-8.3-3.9-12.8-4.8-4.5-.8-9.1-1-13.6-.4s-9 1.9-12.9 4.2c-3.9 2.3-7.2 5.8-9.3 9.9-1 2.1-1.7 4.3-1.9 6.6-.2 2.3.1 4.6.7 6.8.7 2.2 1.8 4.2 3.3 5.9 1.5 1.7 3.4 3 5.4 3.9-3.8-1.8-6.7-5.6-7.9-9.9zm.2 12.1c-2.4.3-4.7 1.2-6.7 2.6-1 .7-1.9 1.5-2.7 2.4-.8.9-1.5 1.9-2.1 3-1.2 2.1-2 4.4-2.6 6.7-1 4.7-1.1 9.5-1.1 14.2.1 4.7.5 9.4 1 14.1 1 9.3 2.2 18.6 1.5 27.9-.3 4.6-1 9.2-2.4 13.6-.7 2.2-1.6 4.4-2.6 6.4-1.1 2.1-2.3 4-3.8 5.9 1.6-1.7 3-3.6 4.2-5.6 1.2-2 2.2-4.2 3.1-6.4 1.6-4.4 2.6-9.1 3.1-13.8 1-9.5-.2-18.9-1.1-28.2-.5-4.7-.9-9.3-1-13.9-.1-4.6 0-9.3.8-13.8.4-2.2 1.2-4.4 2.2-6.4.5-1 1.1-2 1.8-2.9.7-.9 1.5-1.7 2.4-2.4 1.8-1.4 3.9-2.4 6.2-2.8 2.2-.4 4.7-.1 6.8 1-2.1-1.4-4.6-1.9-7-1.6zm-18.5 62.1c-.7 3-1.6 5.9-2.6 8.7-1 2.9-2.3 5.7-3.6 8.5 2-2.4 3.7-5 5.1-7.9 1.4-2.8 2.4-5.8 3.1-8.9.6-2.7 1-5.4 1.1-8.1.1 2.2.1 4.5 0 6.7-.3 8.6-2 17.1-4.8 25.2 1.8-3.9 3.2-8.1 4.3-12.2 1.1-4.2 1.7-8.5 2.1-12.9.3-4.3.2-8.7-.2-13.1s-1.4-8.6-2.3-12.8c-1-4.2-1.9-8.4-2.4-12.6-.5-4.2-.5-8.5.4-12.6s2.8-8 5.8-11c1.5-1.5 3.2-2.8 5.1-3.7 1.9-.9 4-1.4 6.2-1.5-2.2-.2-4.4.2-6.4 1s-3.9 2-5.6 3.5c-1.6 1.5-3.1 3.2-4.2 5.2-1.1 1.9-1.9 4-2.5 6.2-1.1 4.3-1.2 8.8-.8 13.2.4 4.4 1.4 8.6 2.3 12.9.2 1.1.5 2.2.7 3.2-.7-2.8-1.5-5.7-2.2-8.5-1.4-6.2-2.5-12.4-2.3-18.6.1-1.5.2-3.1.4-4.6.2-1.5.6-3 1-4.5s1-2.9 1.6-4.3c.7-1.4 1.5-2.7 2.3-4 1.8-2.5 4-4.7 6.6-6.4 1.3-.8 2.7-1.6 4.2-2.1s3-.9 4.6-1.1c-1.6 0-3.2.2-4.8.6-1.6.4-3.1 1-4.5 1.8s-2.7 1.7-4 2.8c-1.2 1.1-2.3 2.3-3.4 3.5-1 1.3-1.9 2.7-2.7 4.1-.7 1.5-1.3 3-1.8 4.5-1 3.1-1.4 6.4-1.6 9.6-.1 3.2.2 6.5.7 9.7.5 3.2 1.2 6.3 2.2 9.4 1.4 4.9 3.1 9.6 4.7 14.3 0 2.7-.2 5.3-.4 7.9-.3 3-.7 6-1.4 8.9z" fill="#1b141c" stroke-width="none" opacity="1" stroke="none"></path></g><g id="svga-group-glasses-single-move" transform="matrix(1,0,0,1,0,0)"><g id="svga-group-glasses-single"><path id="SvgjsPath12512" d="m92.2 97.2-22.21.64c-.67.02-1.24-.5-1.28-1.16l-.45-8.42c-.04-.69.49-1.25 1.18-1.26l23.84-.39c.65-.01 1.17.52 1.17 1.19l.01 7.06c0 1.25-1.01 2.3-2.26 2.34z" fill="#ffffff" stroke-width="none" opacity="0.45"></path><path id="SvgjsPath12513" d="m109.2 96.73 20.34-.58c.58-.02 1.09-.53 1.14-1.15l.57-7.87c.05-.64-.4-1.15-.99-1.14l-21.85.35c-.63.01-1.15.55-1.17 1.21l-.17 6.97c-.04 1.26.92 2.25 2.13 2.21z" fill="#ffffff" stroke-width="none" opacity="0.45"></path><path id="SvgjsPath12514" d="M95.67 92.08c0 1.23-.32 2.24-.71 2.25-.39.01-.71-.98-.71-2.22 0-1.24.32-2.26.71-2.27.4 0 .72 1 .71 2.24z" fill="#939393" stroke-width="none" opacity="1"></path><path id="SvgjsPath12515" d="M105.99 91.85c-.03 1.22.26 2.2.64 2.19.38-.01.71-1 .75-2.22.03-1.22-.26-2.22-.64-2.21-.39 0-.73 1.01-.75 2.24z" fill="#939393" stroke-width="none" opacity="1"></path><path id="SvgjsPath12516" d="m132.87 85.59-2.48.04-22.04.36c-.76.01-1.4.67-1.42 1.47l-.03 1.39c-1.95-.03-4.03-.54-5.99-.51-2.08.04-4.02.64-6.09.74v-1.41c0-.81-.64-1.46-1.43-1.45l-24.07.39-2.87.05.11 1.91 1.35-.02.45 8.25c.04.8.74 1.44 1.56 1.41l22.5-.65c1.33-.04 2.41-1.16 2.41-2.51v-4.69c2.07-.1 4.01-.7 6.08-.75 1.95-.04 4.03.47 5.98.49l-.11 4.63c-.03 1.33.99 2.38 2.27 2.34l20.6-.6c.71-.02 1.33-.65 1.38-1.4l.56-7.69 1.16-.02.12-1.77zM92.4 96.84l-22.53.64a.75.75 0 0 1-.77-.7l-.45-8.63c-.02-.41.3-.76.71-.76l24.03-.41c.39-.01.71.32.71.72l.01 7.37c0 .94-.77 1.74-1.71 1.77zm37.96-1.75c-.03.37-.33.68-.69.69l-20.62.58c-.91.03-1.63-.72-1.61-1.66l.18-7.26c.01-.4.33-.72.7-.73l22.01-.37c.36-.01.63.3.6.69l-.57 8.06z" fill="#26120b" stroke-width="none" opacity="1"></path></g></g></g></g></g><rect id="svga-credit-rect" width="200" height="15" x="0" y="185" fill="#ecf0f1" opacity="0.5" style="display: none;"></rect><text id="svga-credit-text" font-family="Avenir Next, Roboto, Helvetica, Arial, sans-serif" font-size="10px" text-anchor="start" font-weight="400" size="10px" anchor="start" weight="400" fill="#333333" x="33.402061462402344" y="182.71133995056152" style="display: none;"><tspan id="SvgjsTspan7048" dy="13" x="33.402061462402344">Created on AvatarMaker.com</tspan></text></g><defs id="SvgjsDefs6995"><linearGradient id="SvgjsLinearGradient10800" x1="79.4739" y1="121.3709" x2="79.4739" y2="101.6175" gradientTransform="matrix(1 0 0 -1 0 202)" gradientUnits="userSpaceOnUse" class="svga-on-canvas-glasses-gradient-single-0-null"><stop id="SvgjsStop10801" stop-opacity="1" stop-color="#bfeaf2" offset="0" ></stop><stop id="SvgjsStop10802" stop-opacity="0.649" stop-color="#a1cae3" offset="0.351" ></stop><stop id="SvgjsStop10803" stop-opacity="0" stop-color="#6086c4" offset="1" ></stop></linearGradient><linearGradient id="SvgjsLinearGradient10805" x1="-1738.6592" y1="121.1959" x2="-1738.6592" y2="101.7599" gradientTransform="matrix(-1 0 0 -1 -1618 202)" gradientUnits="userSpaceOnUse" class="svga-on-canvas-glasses-gradient-single-1-null"><stop id="SvgjsStop10806" stop-opacity="1" stop-color="#bfeaf2" offset="0" ></stop><stop id="SvgjsStop10807" stop-opacity="0.649" stop-color="#a1cae3" offset="0.351" ></stop><stop id="SvgjsStop10808" stop-opacity="0" stop-color="#6086c4" offset="1" ></stop></linearGradient></defs></svg>